<svg xmlns="http://www.w3.org/2000/svg" viewBox="0 0 505.59 506.16"><title>Datový zdroj 1CoffeeBean</title><g id="Vrstva_2" data-name="Vrstva 2"><g id="Vrstva_1-2" data-name="Vrstva 1"><path d="M321,.31c.21-.41,33.09-.41,33.58,0,4.34.67,8.67,1.38,13,2,33.33,4.92,63.05,17.59,88.13,40.53,3.12,2.86,3.92,5.14,2.35,9.21-24.81,64.19-68.47,112.56-125.36,149.86-30.67,20.1-63.94,34.79-98.3,47.23-46,16.65-89.33,38.22-127.66,69-36.09,29-65,63.59-83.2,106.55a26.4,26.4,0,0,1-1.57,2.7,149.52,149.52,0,0,1-16.88-44C2.91,373,1.66,362.41,0,351.91V325.24C1.13,316.15,1.93,307,3.44,298c6.66-39.82,21.2-76.77,41.8-111.3A403.78,403.78,0,0,1,161.52,61.51C202.22,33,246.48,12.64,295.71,4,304.1,2.56,312.56,1.54,321,.31Z"/><path d="M482.11,76a167.71,167.71,0,0,1,21.54,63.91c6.29,48.52-3.12,94.63-22.53,138.82-34,77.38-88.31,137.15-160.18,181.11-34.78,21.27-72.22,36.12-112.55,42.81-39.65,6.57-78.64,4.69-116.08-11.57a154.94,154.94,0,0,1-44.86-30c-2.28-2.17-2.63-4.06-1.74-6.87,9.11-28.63,24.13-53.85,43.72-76.49,25-28.87,55.25-50.94,88.43-69.36,30.14-16.72,62.73-27.62,94.55-40.39,58.16-23.32,109.84-56.43,152.13-103.18a318.78,318.78,0,0,0,54.63-82.82C480,80.17,480.87,78.47,482.11,76Z"/></g></g></svg>